<?xml version="1.0" encoding="UTF-8" standalone="no"?>
<!-- Created with Inkscape (http://www.inkscape.org/) -->

<svg
   xmlns:dc="http://purl.org/dc/elements/1.1/"
   xmlns:cc="http://creativecommons.org/ns#"
   xmlns:rdf="http://www.w3.org/1999/02/22-rdf-syntax-ns#"
   xmlns:svg="http://www.w3.org/2000/svg"
   xmlns="http://www.w3.org/2000/svg"
   xmlns:sodipodi="http://sodipodi.sourceforge.net/DTD/sodipodi-0.dtd"
   xmlns:inkscape="http://www.inkscape.org/namespaces/inkscape"
   inkscape:version="0.91 r13725"
   version="1.1"
   id="svg2"
   viewBox="0 0 744.09448819 1052.3622047"
   height="297mm"
   width="210mm"
   sodipodi:docname="waves.svg">
  <defs
     id="defs4" />
  <sodipodi:namedview
     inkscape:window-maximized="1"
     inkscape:window-y="-8"
     inkscape:window-x="-8"
     inkscape:window-height="1017"
     inkscape:window-width="1920"
     showborder="false"
     showgrid="false"
     inkscape:current-layer="layer5"
     inkscape:document-units="px"
     inkscape:cy="2.7151241"
     inkscape:cx="84.124536"
     inkscape:zoom="4.526076"
     inkscape:pageshadow="2"
     inkscape:pageopacity="0.0"
     borderopacity="1.0"
     bordercolor="#666666"
     pagecolor="#ffffff"
     id="base" />
  <metadata
     id="metadata7">
    <rdf:RDF>
      <cc:Work
         rdf:about="">
        <dc:format>image/svg+xml</dc:format>
        <dc:type
           rdf:resource="http://purl.org/dc/dcmitype/StillImage" />
        <dc:title></dc:title>
      </cc:Work>
    </rdf:RDF>
  </metadata>
  <g
     inkscape:groupmode="layer"
     id="layer2"
     inkscape:label="background"
     sodipodi:insensitive="true">
    <rect
       style="fill:#696969;fill-opacity:1;stroke:none;stroke-width:4;stroke-miterlimit:4;stroke-dasharray:none;stroke-opacity:1"
       id="rect4218"
       width="448.69125"
       height="416.1955"
       x="-112.48527"
       y="855.51294" />
  </g>
  <g
     inkscape:label="sine"
     inkscape:groupmode="layer"
     id="layer1"
     style="display:none"
     sodipodi:insensitive="true">
    <path
       style="fill:none;fill-rule:evenodd;stroke:#ffffff;stroke-width:5.64171076;stroke-linecap:butt;stroke-linejoin:miter;stroke-miterlimit:4;stroke-dasharray:none;stroke-opacity:1"
       d="m -1.1255066,1050.3622 c 0,0 8.0931816,-12.5993 12.6406886,-18.8158 3.927784,-5.3694 7.592736,-10.8106 12.640688,-15.9538 3.634628,-3.7032 6.746833,-7.729 12.640688,-10.6654 3.446119,-1.717 7.707167,-3.7441 12.640689,-3.7441 4.933522,0 9.194569,2.0271 12.640688,3.7441 5.893855,2.9364 9.006061,6.9622 12.640688,10.6654 5.047952,5.1432 8.712904,10.5844 12.640689,15.9538 4.547507,6.2165 8.427125,12.5439 12.640688,18.8158 4.21357,6.272 8.09318,12.5993 12.64069,18.8159 3.92778,5.3694 7.59273,10.8105 12.64069,15.9538 3.63463,3.7031 6.74683,7.729 12.64069,10.6654 3.44611,1.7169 7.70716,3.744 12.64068,3.744 4.93352,0 9.19458,-2.0271 12.64069,-3.744 5.89386,-2.9364 9.00606,-6.9623 12.64069,-10.6654 5.04795,-5.1433 8.7129,-10.5844 12.64069,-15.9538 4.54751,-6.2166 12.64069,-18.8159 12.64069,-18.8159"
       id="path4136"
       inkscape:connector-curvature="0"
       sodipodi:nodetypes="cassssssssssssssc"
       inkscape:export-xdpi="17.338026"
       inkscape:export-ydpi="17.338026" />
  </g>
  <g
     inkscape:groupmode="layer"
     id="layer3"
     inkscape:label="square"
     style="display:none"
     sodipodi:insensitive="true">
    <path
       style="fill:none;fill-rule:evenodd;stroke:#ffffff;stroke-width:5.6420002;stroke-linecap:butt;stroke-linejoin:miter;stroke-miterlimit:4;stroke-dasharray:none;stroke-opacity:1"
       d="m 0,1052.3622 0,-50 100,0 0,50 0,50 100,0 0,-50"
       id="path4221"
       inkscape:connector-curvature="0"
       sodipodi:nodetypes="ccccccc"
       inkscape:export-xdpi="17.338026"
       inkscape:export-ydpi="17.338026" />
  </g>
  <g
     inkscape:groupmode="layer"
     id="layer4"
     inkscape:label="sawtooth"
     sodipodi:insensitive="true"
     style="display:none">
    <path
       style="fill:none;fill-rule:evenodd;stroke:#ffffff;stroke-width:5.6420002;stroke-linecap:butt;stroke-linejoin:miter;stroke-miterlimit:4;stroke-dasharray:none;stroke-opacity:1"
       d="m 0,1052.3622 100,-50 0,50 0,50 100,-50"
       id="path4224"
       inkscape:connector-curvature="0"
       sodipodi:nodetypes="ccccc"
       inkscape:export-xdpi="17.775742"
       inkscape:export-ydpi="17.775742" />
  </g>
  <g
     inkscape:groupmode="layer"
     id="layer5"
     inkscape:label="triangle">
    <path
       style="fill:none;fill-rule:evenodd;stroke:#ffffff;stroke-width:5.642;stroke-linecap:butt;stroke-linejoin:miter;stroke-opacity:1;stroke-miterlimit:4;stroke-dasharray:none"
       d="m 0,1052.3622 50,-50 50,50 50,50 50,-50"
       id="path4227"
       inkscape:connector-curvature="0"
       sodipodi:nodetypes="ccccc"
       inkscape:export-xdpi="17.775742"
       inkscape:export-ydpi="17.775742" />
  </g>
</svg>
